<svg width="405" height="256" viewBox="0 0 405 256" fill="none" xmlns="http://www.w3.org/2000/svg">
<path d="M85.2188 209.193H70.5938V215.896H85.2188V209.193Z" fill="#A2C2ED"/>
<path d="M93.375 218.131H78.75V224.834H93.375V218.131Z" fill="#A2C2ED"/>
<path d="M85.2188 244.664H70.5938V251.367H85.2188V244.664Z" fill="#A2C2ED"/>
<path d="M99 227.068H87.1875V233.771H99V227.068Z" fill="#A2C2ED"/>
<path fill-rule="evenodd" clip-rule="evenodd" d="M88.5937 209.193H95.9062V215.896H88.5937C87.8171 215.896 87.1875 215.271 87.1875 214.5V210.59C87.1875 209.819 87.8171 209.193 88.5937 209.193Z" fill="#A2C2ED"/>
<path d="M323.156 226.51H337.781V233.213H323.156V226.51Z" fill="#A1C1EF"/>
<path d="M315 235.447H329.625V242.15H315V235.447Z" fill="#A1C1EF"/>
<path d="M309.375 244.385H321.188V251.088H309.375V244.385Z" fill="#A1C1EF"/>
<path fill-rule="evenodd" clip-rule="evenodd" d="M319.781 226.51H312.469V233.213H319.781C320.558 233.213 321.188 232.588 321.188 231.816V227.906C321.188 227.135 320.558 226.51 319.781 226.51Z" fill="#A1C1EF"/>
<path fill-rule="evenodd" clip-rule="evenodd" d="M134.208 125.874L136.395 134.091L122.839 125.874H103.695C102.345 125.874 101.25 124.788 101.25 123.449V104.956C101.25 103.616 102.345 102.53 103.695 102.53H137.618C138.968 102.53 140.062 103.616 140.062 104.956V123.449C140.062 124.788 138.968 125.874 137.618 125.874H134.208Z" fill="#FF134E"/>
<path d="M120.656 122.053C125.006 122.053 128.531 118.551 128.531 114.232C128.531 109.913 125.006 106.412 120.656 106.412C116.307 106.412 112.781 109.913 112.781 114.232C112.781 118.551 116.307 122.053 120.656 122.053Z" fill="#FFFFFE"/>
<path fill-rule="evenodd" clip-rule="evenodd" d="M120.764 122.053C118.643 122.123 116.688 121.282 115.271 119.922C115.471 119.653 115.772 119.333 116.078 119.167L118.401 117.909C118.622 117.789 118.759 117.559 118.759 117.309V116.453C118.585 116.226 118.086 115.519 117.847 114.581C117.601 114.386 117.457 114.092 117.457 113.777V112.743C117.457 112.494 117.551 112.253 117.718 112.064V110.689C117.703 110.546 117.646 109.699 118.262 109.001C118.797 108.395 119.665 108.088 120.842 108.088C122.019 108.088 122.887 108.395 123.422 109.001C124.039 109.7 123.981 110.546 123.967 110.689V112.064C124.133 112.253 124.227 112.494 124.227 112.743V113.777C124.227 114.185 123.989 114.545 123.621 114.713C123.433 115.256 123.175 115.76 122.852 116.213C122.787 116.304 122.725 116.386 122.665 116.458V117.333C122.665 117.594 122.811 117.828 123.045 117.944L125.533 119.18C125.826 119.325 126.079 119.525 126.281 119.763C124.857 121.163 122.912 122.032 120.764 122.053Z" fill="#16205A"/>
<path d="M282.831 69.5513V59.0277H292.167V49.9941H290.761V57.6312H281.425V68.1548H271.828V80.3939H273.234V69.5513H282.831Z" fill="#F9F9F9"/>
<path d="M130.133 74.8579V64.3343H120.797V55.3008H122.203V62.9378H131.539V73.4614H141.136V85.7005H139.73V74.8579H130.133Z" fill="#757BD9"/>
<path d="M299.672 177.493C304.642 177.493 308.672 173.492 308.672 168.556C308.672 163.62 304.642 159.618 299.672 159.618C294.701 159.618 290.672 163.62 290.672 168.556C290.672 173.492 294.701 177.493 299.672 177.493ZM299.672 176.097C295.478 176.097 292.078 172.72 292.078 168.556C292.078 164.391 295.478 161.015 299.672 161.015C303.866 161.015 307.266 164.391 307.266 168.556C307.266 172.72 303.866 176.097 299.672 176.097Z" fill="#FF7600"/>
<path d="M98.8594 159.06C101.966 159.06 104.484 156.559 104.484 153.474C104.484 150.389 101.966 147.888 98.8594 147.888C95.7528 147.888 93.2344 150.389 93.2344 153.474C93.2344 156.559 95.7528 159.06 98.8594 159.06ZM98.8594 157.663C96.5294 157.663 94.6406 155.787 94.6406 153.474C94.6406 151.16 96.5294 149.284 98.8594 149.284C101.189 149.284 103.078 151.16 103.078 153.474C103.078 155.787 101.189 157.663 98.8594 157.663Z" fill="#6DCAD2"/>
<path d="M287.719 185.453C289.738 185.453 291.375 183.828 291.375 181.822C291.375 179.817 289.738 178.191 287.719 178.191C285.699 178.191 284.062 179.817 284.062 181.822C284.062 183.828 285.699 185.453 287.719 185.453Z" fill="#F29DA3"/>
<path fill-rule="evenodd" clip-rule="evenodd" d="M305.297 108.926L312.187 122.611H298.406L305.297 108.926Z" fill="#F5BF5C"/>
<path d="M180 42.1738H164.25V57.8145H180V42.1738Z" fill="#F29DA3"/>
<path fill-rule="evenodd" clip-rule="evenodd" d="M154.975 160.316L145.941 137.519C145.634 136.744 146.018 135.869 146.799 135.564C146.976 135.495 147.164 135.459 147.355 135.459H181.404L190.969 160.316H154.975Z" fill="#1B3397"/>
<path fill-rule="evenodd" clip-rule="evenodd" d="M156.723 160.316L147.635 137.522C147.326 136.748 147.708 135.872 148.488 135.565C148.666 135.495 148.856 135.459 149.047 135.459H183.189C183.654 135.459 184.072 135.744 184.239 136.175L193.585 160.316H156.723Z" fill="#3854C9"/>
<path fill-rule="evenodd" clip-rule="evenodd" d="M155.707 160.316L156.402 162.83H208.775C209.32 162.356 209.793 161.868 210.192 161.367C210.591 160.867 210.934 160.33 211.219 159.758L155.707 160.316Z" fill="#3854C9"/>
<path fill-rule="evenodd" clip-rule="evenodd" d="M154.967 160.285L155.958 162.83H180.483C181.088 162.279 181.559 161.804 181.896 161.407C182.233 161.01 182.538 160.461 182.812 159.758L154.967 160.285Z" fill="#1B3397"/>
<path fill-rule="evenodd" clip-rule="evenodd" d="M149.906 137.135L158.586 160.215L191.812 159.775L182.85 137.135H149.906Z" fill="#F9F9F9"/>
<path fill-rule="evenodd" clip-rule="evenodd" d="M157.781 146.631H183.375L183.938 148.027H158.344L157.781 146.631Z" fill="#D8D8D8"/>
<path fill-rule="evenodd" clip-rule="evenodd" d="M158.906 149.982H184.5L185.062 151.379H159.469L158.906 149.982Z" fill="#D8D8D8"/>
<path fill-rule="evenodd" clip-rule="evenodd" d="M155.25 139.928H167.062L169.031 144.676H157.219L155.25 139.928Z" fill="#D8D8D8"/>
<path fill-rule="evenodd" clip-rule="evenodd" d="M140.062 256.953L154.076 167.857H163.125L145.07 256.953H140.062Z" fill="#0F1C74"/>
<path fill-rule="evenodd" clip-rule="evenodd" d="M235.125 256.953L221.111 167.857H212.062L230.117 256.953H235.125Z" fill="#0F1C74"/>
<path d="M241.312 162.83H135V167.857H241.312V162.83Z" fill="#ADADDA"/>
<path fill-rule="evenodd" clip-rule="evenodd" d="M294.126 239.078C299.813 236.129 302.98 233.345 303.628 230.728C303.694 229.074 303.183 227.739 302.096 226.724C301.609 225.969 302.206 225.43 303.887 225.108C306.591 224.563 307.781 223.607 307.458 222.239C307.046 221.503 306.352 221.088 305.375 220.994C304.9 220.32 305.074 219.76 305.898 219.313C309.648 217.136 310.957 215.397 309.825 214.094C308.432 212.826 306.657 212.775 304.501 213.941C302.399 216.03 301.349 217.075 301.349 217.075C299.909 216.95 299.04 216.338 298.741 215.238C296.91 214.382 295.959 216.591 295.887 221.864L293.906 230.706L294.126 239.078Z" fill="#51A500"/>
<path fill-rule="evenodd" clip-rule="evenodd" d="M287.719 239.078L286.775 226.494C283.758 226.575 282.249 225.899 282.249 224.467C282.249 223.035 282.51 221.167 283.033 218.862C283.296 216.831 282.67 216.186 281.155 216.926C279.956 217.617 279.354 217.35 279.349 216.125C279.729 211.361 278.878 209.155 276.797 209.509C274.61 209.734 273.628 212.061 273.853 216.492C274.569 220.608 274.418 222.63 273.402 222.56C271.809 222.815 271.544 223.741 272.606 225.338C273.642 226.578 275.441 227.826 278.003 229.083C279.158 230.484 279.186 231.245 278.086 231.367C276.555 231.465 276.109 232.297 276.748 233.865C277.386 235.434 281.043 237.171 287.719 239.078Z" fill="#51A500"/>
<path fill-rule="evenodd" clip-rule="evenodd" d="M290.24 240.195C283.98 227.394 282.954 221.523 287.163 222.584C288.283 222.496 288.231 221.421 287.007 219.358C284.161 213.641 284.753 211.16 288.782 211.916C289.65 211.919 290.118 211.087 290.185 209.419C291.007 204.044 293.169 201.675 296.671 202.312C297.74 202.839 298.057 203.683 297.621 204.842C296.968 206.582 295.911 211.169 295.911 211.169C295.686 212.242 296.16 212.632 297.332 212.341C300.029 211.771 300.751 212.724 299.497 215.202C296.187 220.03 294.532 222.444 294.532 222.444C293.82 224.017 294.161 224.682 295.555 224.438C297.961 224.04 298.654 225.056 297.632 227.487C297.155 228.62 294.979 230.654 293.806 232.306C291.428 235.653 290.24 238.283 290.24 240.195Z" fill="#51A500"/>
<path d="M277.116 213.922C275.684 223.829 281.069 234.112 293.251 244.769L293.437 244.56C281.319 233.959 275.978 223.76 277.395 213.962L277.116 213.922Z" fill="#3F3643"/>
<path d="M307.615 214.938C303.863 217.181 301.456 220.399 300.4 224.584C298.724 231.227 295.945 237.027 291.828 242.062L292.047 242.238C296.19 237.17 298.987 231.333 300.673 224.652C301.711 220.538 304.072 217.383 307.76 215.178L307.615 214.938Z" fill="#3F3643"/>
<path d="M294.617 206.074C292.739 211.308 291.578 215.304 291.136 218.066C289.169 230.35 289.504 241.765 291.571 247.781L291.837 247.691C289.787 241.724 289.453 230.353 291.413 218.11C291.852 215.368 293.009 211.387 294.882 206.168L294.617 206.074Z" fill="#3F3643"/>
<path fill-rule="evenodd" clip-rule="evenodd" d="M281.531 241.033H301.781L298.23 256.903H285.467L281.531 241.033Z" fill="#16205A"/>
<path d="M297.88 256.54L297.743 256.783C296.549 256.121 296.185 254.701 296.632 252.551C296.885 251.55 296.545 250.658 295.578 249.842C294.918 249.063 294.782 248.101 295.161 247.002C295.287 246.089 295.107 245.265 294.617 244.52C293.815 243.238 293.877 242.308 294.858 241.801C295.498 241.575 296.163 241.719 296.84 242.222C297.283 242.551 297.498 242.744 297.677 242.955C297.696 242.976 297.714 242.998 297.735 243.024C297.976 243.32 298.007 243.356 298.211 243.554C298.223 243.566 298.223 243.566 298.235 243.577C298.432 243.759 298.609 243.843 299.024 243.985C299.608 244.185 299.831 244.341 299.946 244.778C299.997 244.972 300.016 245.058 300.131 245.589C300.143 245.645 300.153 245.692 300.163 245.736C300.323 246.467 300.453 246.856 300.544 246.89L300.442 247.151C300.207 247.061 300.086 246.699 299.888 245.796C299.878 245.751 299.868 245.704 299.856 245.648C299.742 245.122 299.723 245.036 299.674 244.848C299.59 244.53 299.435 244.421 298.932 244.249C298.482 244.095 298.278 243.998 298.043 243.781C298.029 243.768 298.029 243.768 298.015 243.754C297.892 243.635 297.794 243.532 297.707 243.43C297.649 243.364 297.6 243.304 297.516 243.199C297.496 243.175 297.479 243.154 297.462 243.135C297.299 242.942 297.099 242.763 296.671 242.446C296.065 241.995 295.496 241.872 294.97 242.057C294.18 242.466 294.13 243.212 294.854 244.37C295.379 245.169 295.575 246.061 295.433 247.065C295.079 248.102 295.2 248.962 295.776 249.645C296.804 250.511 297.186 251.508 296.906 252.614C296.483 254.652 296.815 255.949 297.88 256.54Z" fill="#A2A7F7"/>
<path d="M284.05 251.568C285.331 250.93 285.854 250.011 285.644 248.784C285.493 248.082 285.758 247.458 286.425 246.937C286.774 246.551 286.864 246.047 286.675 245.422C286.607 244.78 286.75 244.225 287.098 243.735C287.553 243.064 287.54 242.642 287.096 242.394C286.801 242.28 286.467 242.34 286.098 242.594C285.878 242.746 285.862 242.763 285.681 242.983C285.565 243.126 285.433 243.206 285.098 243.323C284.448 243.55 284.081 243.87 283.95 244.303C283.679 245.203 283.211 245.886 282.585 245.761L282.64 245.487C283.05 245.569 283.451 244.984 283.681 244.223C283.841 243.694 284.276 243.313 285.004 243.059C285.295 242.958 285.384 242.904 285.463 242.807C285.472 242.796 285.511 242.746 285.523 242.732C285.552 242.696 285.579 242.665 285.611 242.632C285.692 242.548 285.796 242.462 285.938 242.365C286.38 242.061 286.81 241.983 287.217 242.142C287.848 242.495 287.867 243.102 287.329 243.893C287.019 244.33 286.893 244.818 286.949 245.367C287.161 246.056 287.052 246.662 286.616 247.141C286.012 247.615 285.792 248.134 285.921 248.732C286.153 250.091 285.563 251.127 284.176 251.818L284.05 251.568Z" fill="#A2A7F7"/>
<path d="M295.885 243.706L296.128 243.564C297.034 245.101 297.651 246.176 297.981 246.789C298.3 247.382 298.576 248.099 298.82 248.923C298.978 249.457 299.115 250.011 299.248 250.622C299.318 250.944 299.487 251.779 299.5 251.837L299.225 251.895C299.212 251.835 299.043 251.001 298.973 250.681C298.842 250.076 298.706 249.528 298.55 249.002C298.311 248.194 298.042 247.495 297.733 246.921C297.406 246.311 296.789 245.239 295.885 243.706Z" fill="#A2A7F7"/>
<path d="M285.784 244.354C284.492 246.569 283.779 247.981 283.654 248.563L283.379 248.504C283.513 247.881 284.231 246.46 285.54 244.214L285.784 244.354Z" fill="#A2A7F7"/>
<path d="M292.168 256.944C292.125 256.28 292.271 255.74 292.603 255.316C293.634 254.188 293.762 252.842 292.983 251.315C292.442 250.509 292.422 249.607 292.92 248.577C293.448 247.169 293.15 246.2 292.03 245.723C290.861 245.443 290.091 245.924 289.746 247.119C289.476 247.758 289.107 248.256 288.643 248.6C287.928 249.175 287.511 249.663 287.388 250.08C287.231 250.611 287.208 250.931 287.234 251.783C287.247 252.193 286.856 252.681 286.042 253.232C285.341 253.699 285.011 254.502 285.047 255.623L285.328 255.614C285.295 254.582 285.587 253.871 286.199 253.463C287.087 252.864 287.532 252.307 287.515 251.774C287.49 250.949 287.511 250.655 287.658 250.159C287.761 249.81 288.146 249.359 288.815 248.821C289.318 248.448 289.718 247.909 290.011 247.211C290.321 246.141 290.946 245.751 291.942 245.987C292.888 246.392 293.136 247.2 292.661 248.468C292.127 249.571 292.15 250.577 292.74 251.456C293.46 252.868 293.344 254.09 292.388 255.136C292.004 255.625 291.84 256.233 291.888 256.962L292.168 256.944Z" fill="#A2A7F7"/>
<path d="M291.239 247.7C290 252.222 289.064 255.291 288.432 256.903L288.694 257.004C289.33 255.38 290.269 252.305 291.511 247.774L291.239 247.7Z" fill="#A2A7F7"/>
<path fill-rule="evenodd" clip-rule="evenodd" d="M212.423 157.772C207.714 155.486 205.229 152.47 204.966 148.726C207.217 149.368 208.689 150.1 209.38 150.919C210.078 151.746 211.092 154.03 212.423 157.772Z" fill="#406FF3"/>
<path fill-rule="evenodd" clip-rule="evenodd" d="M209.31 151.54C207.204 156.183 204.639 158.964 201.616 159.882C201.063 159.478 201.108 158.856 201.75 158.018C202.392 157.18 203.002 156.458 203.582 155.853C202.454 156.413 201.644 156.876 201.153 157.24C200.735 157.55 200.241 158.016 199.671 158.639C199.478 158.85 199.328 159.096 199.228 159.363C198.786 160.542 198.386 161.186 198.027 161.296C197.432 161.476 197.214 161.055 197.214 158.98C197.214 157.636 197.89 156.02 199.243 154.13C199.322 154.02 199.413 153.918 199.513 153.826L206.378 147.541C207.631 148.534 208.376 149.346 208.612 149.978C208.848 150.61 209.081 151.131 209.31 151.54Z" fill="#F4B7B4"/>
<path fill-rule="evenodd" clip-rule="evenodd" d="M254.601 249.73L265.6 250.114L262.689 192.513V140.499L244.436 182.848L245.73 196.842L254.601 249.73Z" fill="#FB9D00"/>
<path fill-rule="evenodd" clip-rule="evenodd" d="M240.469 150.68C253.152 158.242 264.675 156.562 275.039 145.642C271.251 140.644 268.098 138.398 265.58 138.904C260.24 139.977 251.87 143.902 240.469 150.68Z" fill="#406FF3"/>
<path fill-rule="evenodd" clip-rule="evenodd" d="M210.192 250.689L220.916 250.113C229.442 225.813 237.072 206.161 243.805 191.158C253.905 168.654 258.654 164.862 260.743 160.172C262.832 155.483 267.604 146.422 260.236 131.627L239.939 138.811L223.594 183.314L210.192 250.689Z" fill="#FFC112"/>
<path fill-rule="evenodd" clip-rule="evenodd" d="M239.344 130.323L233.336 138.811L212.423 157.772C210.882 154.265 209.718 152.044 208.93 151.11C208.141 150.176 206.82 149.381 204.966 148.726L225.89 127.71L236.365 110.602L239.344 130.323Z" fill="#002284"/>
<path fill-rule="evenodd" clip-rule="evenodd" d="M248.706 98.445L243.743 86.8164C243.689 85.2709 243.627 83.5189 243.558 81.5601C243.455 78.6221 239.502 71.9714 231.723 76.2815C227.137 78.8226 225.675 83.0036 227.698 87.9258C227.962 88.5693 231.251 95.0971 237.731 90.6436L240.517 104.349L248.706 98.445Z" fill="#F5B7B3"/>
<path d="M229.775 86.2302L229.831 85.9565C230.372 86.0662 230.864 86.0562 231.307 85.9278C231.743 85.8016 232.066 85.5777 232.283 85.2549L232.517 85.41C232.262 85.7895 231.883 86.0519 231.386 86.1959C230.897 86.3376 230.359 86.3486 229.775 86.2302Z" fill="#0A0F43"/>
<path fill-rule="evenodd" clip-rule="evenodd" d="M199.208 106.285C199.457 101.997 201.99 98.1116 206.807 94.6299C207.057 98.5009 206.659 101.071 205.615 102.341C203.87 104.46 201.735 105.775 199.208 106.285Z" fill="#406FF3"/>
<path fill-rule="evenodd" clip-rule="evenodd" d="M198.29 96.7132L208.065 103.13L211.589 99.0809C207.423 95.4381 204.284 92.9184 202.175 91.5218C199.01 89.4269 193.145 89.435 192.224 90.1094C191.611 90.559 192.64 91.1588 195.314 91.9088C188.693 92.1723 185.671 92.5407 186.248 93.0142C186.481 93.2049 188.419 94.7252 190.373 94.992C191.676 95.1698 194.315 95.7436 198.29 96.7132Z" fill="#F5B7B3"/>
<path fill-rule="evenodd" clip-rule="evenodd" d="M233.972 119.178C232.852 119.366 231.682 119.541 230.463 119.703C229.402 119.843 228.321 119.68 227.35 119.232L199.213 106.259C201.63 104.997 203.329 103.614 204.31 102.113C205.29 100.611 206.123 98.1166 206.807 94.6298L229.562 106.586C231.375 106.129 233.208 105.45 235.059 104.548C235.927 101.57 237.213 98.7711 238.915 96.1522L247.64 92.7354C255.669 108.055 261.29 118.778 264.503 124.905C267.715 131.031 271.228 137.943 275.039 145.641C267.446 144.868 262.327 145.128 259.683 146.422C253.249 149.568 247.996 152.213 245.241 153.249C241.103 154.805 237.134 155.456 233.336 155.202C234.417 147.35 235.013 141.514 235.125 137.693C235.231 134.067 234.96 128.734 234.313 121.694C234.176 120.845 234.063 120.007 233.972 119.178Z" fill="#003EB0"/>
<path fill-rule="evenodd" clip-rule="evenodd" d="M233.241 79.4969C228.536 82.5492 225.905 83.239 225.347 81.5661C224.511 79.0569 225.023 71.1657 233.982 69.5819C234.899 69.5393 235.562 69.4894 235.973 69.4324C238.932 69.0216 240.996 69.2171 242.066 69.3893C248.373 70.4044 253.869 77.6181 258.553 91.0304C258.952 92.1702 258.367 93.418 257.232 93.8493L249.949 96.6179C246.903 97.776 243.488 96.2625 242.322 93.2373C242.282 93.133 242.245 93.0276 242.211 92.9213C239.652 84.9475 238.208 80.4639 237.881 79.4706C236.425 80.99 235.345 81.4864 234.64 80.96C233.934 80.4335 233.468 79.9459 233.241 79.4969Z" fill="#160A48"/>
<path d="M231.783 119.688C243.06 118.317 249.269 115.475 250.372 111.079L249.827 110.944C248.801 115.031 242.776 117.788 231.714 119.133L231.783 119.688Z" fill="white"/>
<path fill-rule="evenodd" clip-rule="evenodd" d="M254.945 249.73L242.557 254.666L241.594 256.954H268.28L265.514 249.73H254.945Z" fill="#151E5C" stroke="#151E5C"/>
<path fill-rule="evenodd" clip-rule="evenodd" d="M210.526 250.051L220.916 250.114L223.615 257.274H197.438L198.11 254.673L210.526 250.051Z" fill="#141B5E"/>
<path d="M239.657 84.5156C239.641 90.0864 237.546 92.8034 233.336 92.8034V93.362C237.895 93.362 240.202 90.3681 240.22 84.5173L239.657 84.5156Z" fill="white"/>
<path d="M232.453 93.5645C233.152 93.5645 233.719 93.3144 233.719 93.0059C233.719 92.6974 233.152 92.4473 232.453 92.4473C231.754 92.4473 231.188 92.6974 231.188 93.0059C231.188 93.3144 231.754 93.5645 232.453 93.5645Z" fill="#160649"/>
<path d="M240.328 85.4649C242.27 85.4649 243.844 83.4641 243.844 80.9961C243.844 78.5281 242.27 76.5273 240.328 76.5273C238.386 76.5273 236.812 78.5281 236.812 80.9961C236.812 83.4641 238.386 85.4649 240.328 85.4649Z" fill="white"/>
<path d="M240.609 82.9512C241.464 82.9512 242.156 82.0759 242.156 80.9961C242.156 79.9163 241.464 79.041 240.609 79.041C239.755 79.041 239.062 79.9163 239.062 80.9961C239.062 82.0759 239.755 82.9512 240.609 82.9512Z" fill="#BCD8FF"/>
<path fill-rule="evenodd" clip-rule="evenodd" d="M241.096 76.8657C240.584 73.0561 238.874 70.5775 235.966 69.4298C235.644 69.3607 235.346 69.3262 235.071 69.3262C234.796 69.3262 234.433 69.4115 233.982 69.5821C237.515 71.1506 239.453 73.8144 239.794 77.5735L241.096 76.8657Z" fill="white"/>
<path d="M119.725 203.402C122.125 204.669 126.14 201.832 128.692 197.065C131.244 192.298 131.368 187.407 128.968 186.139C126.567 184.872 122.553 187.709 120 192.476C117.448 197.243 117.325 202.134 119.725 203.402Z" fill="#54A300"/>
<path d="M124.708 193.479C119.649 201.594 116.658 210.56 115.735 220.377L116.015 220.403C116.934 210.629 119.911 201.704 124.947 193.627L124.708 193.479Z" fill="#3F3643"/>
<path d="M114.223 191.597C116.915 191.973 119.711 187.944 120.467 182.597C121.224 177.251 119.655 172.613 116.963 172.237C114.271 171.861 111.476 175.891 110.719 181.237C109.963 186.583 111.531 191.222 114.223 191.597Z" fill="#54A300"/>
<path d="M115.212 181.428C114.472 188.814 114.113 194.9 114.136 199.688C114.159 204.474 114.581 211.651 115.401 221.22L115.681 221.196C114.861 211.634 114.44 204.464 114.417 199.686C114.395 194.91 114.753 188.833 115.492 181.455L115.212 181.428Z" fill="#3F3643"/>
<path d="M103.52 183.866C105.72 182.279 104.912 177.452 101.716 173.085C98.5207 168.717 94.1475 166.462 91.9484 168.049C89.7492 169.636 90.557 174.463 93.7525 178.83C96.948 183.198 101.321 185.453 103.52 183.866Z" fill="#54A300"/>
<path d="M96.4084 174.778C105.636 184.82 111.696 200.302 114.583 221.227L114.861 221.189C111.967 200.213 105.887 184.679 96.6161 174.59L96.4084 174.778Z" fill="#3F3643"/>
<path d="M106.707 205.867C108.595 203.925 106.956 199.311 103.045 195.56C99.1344 191.81 94.4334 190.344 92.5451 192.286C90.6568 194.228 92.2964 198.842 96.2071 202.592C100.118 206.343 104.819 207.809 106.707 205.867Z" fill="#54A300"/>
<path d="M98.7675 198.051C106.627 204.791 111.723 212.547 114.057 221.323L114.329 221.252C111.98 212.42 106.852 204.615 98.9513 197.84L98.7675 198.051Z" fill="#3F3643"/>
<path fill-rule="evenodd" clip-rule="evenodd" d="M110.598 219.172H118.522C119.699 222.811 120.653 225.513 121.383 227.278C122.478 229.925 123.29 231.211 124.134 233.154C124.979 235.096 126.515 238.864 126.515 244.053C126.515 247.513 126.344 251.769 126.002 256.821H103.118C102.776 251.769 102.605 247.513 102.605 244.053C102.605 238.864 104.141 235.096 104.985 233.154C105.83 231.211 106.642 229.925 107.737 227.278C108.467 225.513 109.42 222.811 110.598 219.172Z" fill="#16205A"/>
<path d="M117.074 224.014L117.103 224.019C118.52 224.112 119.448 223.791 119.863 223.038L119.616 222.904C119.266 223.54 118.447 223.825 117.135 223.741C115.648 223.335 114.427 223.415 113.478 223.988L113.454 224.006C112.034 225.349 112.39 226.986 114.466 228.853C115.762 229.969 116.534 231.397 116.787 233.145C116.68 235.315 117.41 236.946 118.973 237.992C121.174 238.982 122.287 240.462 122.354 242.458C122.665 246.532 124.037 248.87 126.483 249.439L126.547 249.167C124.245 248.632 122.937 246.403 122.634 242.443C122.565 240.34 121.383 238.769 119.11 237.749C117.653 236.772 116.965 235.235 117.067 233.132C116.803 231.291 115.998 229.802 114.652 228.643C112.691 226.88 112.371 225.426 113.637 224.219C114.514 223.696 115.657 223.625 117.074 224.014Z" fill="#A2A7F7"/>
<path d="M116.109 226.862C119.907 229.773 122.694 232.235 124.469 234.246L124.681 234.062C122.892 232.035 120.092 229.562 116.281 226.641L116.109 226.862Z" fill="#A2A7F7"/>
<path d="M109.051 232.232C107.979 232.77 107.169 234.066 106.629 236.101C105.878 237.737 104.74 238.586 103.208 238.645L103.219 238.925C104.863 238.861 106.092 237.944 106.893 236.195C107.422 234.207 108.192 232.976 109.198 232.469C110.996 231.156 111.307 229.876 110.095 228.694L110.072 228.676C109.122 228.075 108.129 228.03 107.113 228.541L107.24 228.79C108.164 228.325 109.047 228.363 109.909 228.904C110.966 229.944 110.699 231.027 109.051 232.232Z" fill="#A2A7F7"/>
<path d="M108.689 230.041C107.191 230.903 106.036 231.688 105.224 232.397L105.409 232.607C106.206 231.911 107.346 231.136 108.83 230.283L108.689 230.041Z" fill="#A2A7F7"/>
<path d="M114.7 256.813C114.613 255.466 114.907 254.362 115.58 253.495C117.563 251.298 117.806 248.693 116.307 245.719C115.23 244.093 115.189 242.255 116.183 240.174C117.187 237.46 116.629 235.62 114.511 234.707C112.317 234.178 110.879 235.086 110.225 237.383C109.683 238.685 108.946 239.692 108.017 240.39C106.644 241.508 105.843 242.456 105.612 243.25C105.31 244.284 105.266 244.904 105.317 246.579C105.344 247.455 104.489 248.625 102.74 250.068L102.919 250.282C104.731 248.789 105.628 247.56 105.598 246.57C105.548 244.922 105.59 244.328 105.882 243.328C106.094 242.602 106.863 241.691 108.191 240.609C109.158 239.883 109.925 238.836 110.49 237.474C111.11 235.302 112.402 234.486 114.422 234.971C116.366 235.811 116.876 237.491 115.924 240.066C114.895 242.219 114.938 244.16 116.064 245.859C117.505 248.719 117.273 251.2 115.364 253.317C114.64 254.249 114.328 255.419 114.42 256.831L114.7 256.813Z" fill="#A2A7F7"/>
<path d="M113.253 238.457C110.851 247.454 109.036 253.56 107.809 256.771L108.072 256.87C109.303 253.647 111.12 247.534 113.524 238.529L113.253 238.457Z" fill="#A2A7F7"/>
</svg>
